# xmcd
#
# Track frame offsets:
#	182
#	11980
#	30065
#	43582
#	64730
#	80870
#	91960
#	106412
#	124315
#	137667
#
# Disc length: 2075 seconds
#
# Revision: 5
# Processed by: cddbd v1.5.1PL0 Copyright (c) Steve Scherf et al.
# Submitted via: MusicManager 7.2.0.0 
#
DISCID=8108190a
DTITLE=Conway Twitty - The Warner Bros Years
DYEAR=1988
DGENRE=Country
TTITLE0=Don't Call Him A Cowboy
TTITLE1=We Did But Now You Don't
TTITLE2=I Don't Know A Thing About Love (The Moon Song)
TTITLE3=Fallin' For You For Years
TTITLE4=The Rose
TTITLE5=Desperado Love
TTITLE6=Lost In The Feeling
TTITLE7=Somebody's Needin' Somebody
TTITLE8=Slow Hand
TTITLE9=The Clown
EXTD=
EXTT0=
EXTT1=
EXTT2=
EXTT3=
EXTT4=
EXTT5=
EXTT6=
EXTT7=
EXTT8=
EXTT9=
PLAYORDER=
